<svg width="64" height="64" viewBox="0 0 64 64" fill="none" xmlns="http://www.w3.org/2000/svg">
  <defs>
    <linearGradient id="bg" x1="8" y1="6" x2="56" y2="58" gradientUnits="userSpaceOnUse">
      <stop stop-color="#0F172A" />
      <stop offset="1" stop-color="#1E293B" />
    </linearGradient>
    <linearGradient id="accent" x1="14" y1="14" x2="50" y2="50" gradientUnits="userSpaceOnUse">
      <stop stop-color="#F59E0B" />
      <stop offset="0.33" stop-color="#EF4444" />
      <stop offset="0.66" stop-color="#3B82F6" />
      <stop offset="1" stop-color="#8B5CF6" />
    </linearGradient>
  </defs>
  <rect width="64" height="64" rx="16" fill="url(#bg)" />
  <rect x="12" y="10" width="40" height="44" rx="12" fill="white" />
  <rect x="16" y="14" width="32" height="5" rx="2.5" fill="url(#accent)" />
  <rect x="16" y="24" width="22" height="4" rx="2" fill="#DBEAFE" />
  <rect x="16" y="31" width="18" height="4" rx="2" fill="#DBEAFE" />
  <rect x="16" y="38" width="12" height="4" rx="2" fill="#DBEAFE" />
  <circle cx="39" cy="37" r="9" fill="#0EA5E9" />
  <path d="M35.5 37.2L38.1 39.8L43.2 34.8" stroke="white" stroke-width="3" stroke-linecap="round" stroke-linejoin="round" />
  <path d="M24 45.5V39.5C24 38.7 24.7 38 25.5 38H27.5C28.3 38 29 38.7 29 39.5V45.5" stroke="#93C5FD" stroke-width="3" stroke-linecap="round" />
  <path d="M31 45.5V33.5C31 32.7 31.7 32 32.5 32H34.5C35.3 32 36 32.7 36 33.5V45.5" stroke="#60A5FA" stroke-width="3" stroke-linecap="round" />
  <path d="M38 45.5V28.5C38 27.7 38.7 27 39.5 27H41.5C42.3 27 43 27.7 43 28.5V45.5" stroke="#38BDF8" stroke-width="3" stroke-linecap="round" />
</svg>
